<mxfile host="app.diagrams.net" modified="2021-02-18T09:31:38.735Z" agent="5.0 (X11; Linux x86_64) AppleWebKit/537.36 (KHTML, like Gecko) Chrome/88.0.4324.182 Safari/537.36" etag="0uRtjQtzUxt-U4L4bong" version="14.4.0" type="github">
  <diagram id="C5RBs43oDa-KdzZeNtuy" name="Page-1">
    <mxGraphModel dx="723" dy="358" grid="1" gridSize="10" guides="1" tooltips="1" connect="1" arrows="1" fold="1" page="1" pageScale="1" pageWidth="827" pageHeight="1169" math="0" shadow="0">
      <root>
        <mxCell id="WIyWlLk6GJQsqaUBKTNV-0" />
        <mxCell id="WIyWlLk6GJQsqaUBKTNV-1" parent="WIyWlLk6GJQsqaUBKTNV-0" />
        <mxCell id="fDO4mFQE8FthaiIr9Yby-4" style="edgeStyle=orthogonalEdgeStyle;rounded=0;orthogonalLoop=1;jettySize=auto;html=1;exitX=0.5;exitY=1;exitDx=0;exitDy=0;" edge="1" parent="WIyWlLk6GJQsqaUBKTNV-1" source="fDO4mFQE8FthaiIr9Yby-1" target="fDO4mFQE8FthaiIr9Yby-3">
          <mxGeometry relative="1" as="geometry" />
        </mxCell>
        <mxCell id="fDO4mFQE8FthaiIr9Yby-1" value="START" style="ellipse;whiteSpace=wrap;html=1;" vertex="1" parent="WIyWlLk6GJQsqaUBKTNV-1">
          <mxGeometry x="320" y="70" width="120" height="40" as="geometry" />
        </mxCell>
        <mxCell id="fDO4mFQE8FthaiIr9Yby-2" value="FINISH" style="ellipse;whiteSpace=wrap;html=1;" vertex="1" parent="WIyWlLk6GJQsqaUBKTNV-1">
          <mxGeometry x="550" y="390" width="120" height="80" as="geometry" />
        </mxCell>
        <mxCell id="fDO4mFQE8FthaiIr9Yby-6" style="edgeStyle=orthogonalEdgeStyle;rounded=0;orthogonalLoop=1;jettySize=auto;html=1;exitX=0.5;exitY=1;exitDx=0;exitDy=0;entryX=0.5;entryY=0;entryDx=0;entryDy=0;" edge="1" parent="WIyWlLk6GJQsqaUBKTNV-1" source="fDO4mFQE8FthaiIr9Yby-3" target="fDO4mFQE8FthaiIr9Yby-5">
          <mxGeometry relative="1" as="geometry" />
        </mxCell>
        <mxCell id="fDO4mFQE8FthaiIr9Yby-3" value="&lt;div&gt;a = 3.7&lt;/div&gt;&lt;div&gt;p = 0.05&lt;/div&gt;" style="rounded=0;whiteSpace=wrap;html=1;" vertex="1" parent="WIyWlLk6GJQsqaUBKTNV-1">
          <mxGeometry x="320" y="130" width="120" height="60" as="geometry" />
        </mxCell>
        <mxCell id="fDO4mFQE8FthaiIr9Yby-8" style="edgeStyle=orthogonalEdgeStyle;rounded=0;orthogonalLoop=1;jettySize=auto;html=1;exitX=0.5;exitY=1;exitDx=0;exitDy=0;entryX=0.5;entryY=0;entryDx=0;entryDy=0;" edge="1" parent="WIyWlLk6GJQsqaUBKTNV-1" source="fDO4mFQE8FthaiIr9Yby-5" target="fDO4mFQE8FthaiIr9Yby-7">
          <mxGeometry relative="1" as="geometry" />
        </mxCell>
        <mxCell id="fDO4mFQE8FthaiIr9Yby-5" value="&lt;div&gt;i = float(input(&quot;i = &quot;))&lt;/div&gt;&lt;div&gt;n = float(input(&quot;n = &quot;))&lt;/div&gt;" style="shape=parallelogram;perimeter=parallelogramPerimeter;whiteSpace=wrap;html=1;fixedSize=1;" vertex="1" parent="WIyWlLk6GJQsqaUBKTNV-1">
          <mxGeometry x="305" y="210" width="150" height="60" as="geometry" />
        </mxCell>
        <mxCell id="fDO4mFQE8FthaiIr9Yby-9" style="edgeStyle=orthogonalEdgeStyle;rounded=0;orthogonalLoop=1;jettySize=auto;html=1;entryX=0;entryY=0.5;entryDx=0;entryDy=0;exitX=0.5;exitY=1;exitDx=0;exitDy=0;" edge="1" parent="WIyWlLk6GJQsqaUBKTNV-1" source="fDO4mFQE8FthaiIr9Yby-27" target="fDO4mFQE8FthaiIr9Yby-7">
          <mxGeometry relative="1" as="geometry">
            <mxPoint x="220" y="300" as="targetPoint" />
            <mxPoint x="530" y="850" as="sourcePoint" />
            <Array as="points">
              <mxPoint x="380" y="820" />
              <mxPoint x="230" y="820" />
              <mxPoint x="230" y="330" />
            </Array>
          </mxGeometry>
        </mxCell>
        <mxCell id="fDO4mFQE8FthaiIr9Yby-10" style="edgeStyle=orthogonalEdgeStyle;rounded=0;orthogonalLoop=1;jettySize=auto;html=1;exitX=1;exitY=0.5;exitDx=0;exitDy=0;" edge="1" parent="WIyWlLk6GJQsqaUBKTNV-1" source="fDO4mFQE8FthaiIr9Yby-7" target="fDO4mFQE8FthaiIr9Yby-2">
          <mxGeometry relative="1" as="geometry">
            <mxPoint x="540" y="340" as="targetPoint" />
          </mxGeometry>
        </mxCell>
        <mxCell id="fDO4mFQE8FthaiIr9Yby-7" value="i &amp;lt; n" style="rhombus;whiteSpace=wrap;html=1;" vertex="1" parent="WIyWlLk6GJQsqaUBKTNV-1">
          <mxGeometry x="340" y="290" width="80" height="80" as="geometry" />
        </mxCell>
        <mxCell id="fDO4mFQE8FthaiIr9Yby-11" value="" style="rounded=0;whiteSpace=wrap;html=1;" vertex="1" parent="WIyWlLk6GJQsqaUBKTNV-1">
          <mxGeometry x="320" y="400" width="120" height="60" as="geometry" />
        </mxCell>
        <mxCell id="fDO4mFQE8FthaiIr9Yby-12" style="edgeStyle=orthogonalEdgeStyle;rounded=0;orthogonalLoop=1;jettySize=auto;html=1;entryX=0.5;entryY=0;entryDx=0;entryDy=0;" edge="1" parent="WIyWlLk6GJQsqaUBKTNV-1" source="fDO4mFQE8FthaiIr9Yby-7" target="fDO4mFQE8FthaiIr9Yby-11">
          <mxGeometry relative="1" as="geometry">
            <mxPoint x="370" y="400" as="targetPoint" />
            <mxPoint x="380" y="370" as="sourcePoint" />
            <Array as="points">
              <mxPoint x="380" y="380" />
              <mxPoint x="380" y="380" />
            </Array>
          </mxGeometry>
        </mxCell>
        <mxCell id="fDO4mFQE8FthaiIr9Yby-29" style="edgeStyle=orthogonalEdgeStyle;rounded=0;orthogonalLoop=1;jettySize=auto;html=1;exitX=0.5;exitY=1;exitDx=0;exitDy=0;entryX=0.5;entryY=0;entryDx=0;entryDy=0;" edge="1" parent="WIyWlLk6GJQsqaUBKTNV-1" source="fDO4mFQE8FthaiIr9Yby-14" target="fDO4mFQE8FthaiIr9Yby-27">
          <mxGeometry relative="1" as="geometry" />
        </mxCell>
        <mxCell id="fDO4mFQE8FthaiIr9Yby-14" value="" style="rounded=0;whiteSpace=wrap;html=1;" vertex="1" parent="WIyWlLk6GJQsqaUBKTNV-1">
          <mxGeometry x="320" y="670" width="120" height="60" as="geometry" />
        </mxCell>
        <mxCell id="fDO4mFQE8FthaiIr9Yby-15" style="edgeStyle=orthogonalEdgeStyle;rounded=0;orthogonalLoop=1;jettySize=auto;html=1;entryX=0.5;entryY=0;entryDx=0;entryDy=0;" edge="1" parent="WIyWlLk6GJQsqaUBKTNV-1" target="fDO4mFQE8FthaiIr9Yby-14">
          <mxGeometry relative="1" as="geometry">
            <mxPoint x="340" y="330" as="targetPoint" />
            <mxPoint x="380" y="650" as="sourcePoint" />
            <Array as="points">
              <mxPoint x="380" y="670" />
            </Array>
          </mxGeometry>
        </mxCell>
        <mxCell id="fDO4mFQE8FthaiIr9Yby-21" style="edgeStyle=orthogonalEdgeStyle;rounded=0;orthogonalLoop=1;jettySize=auto;html=1;entryX=0.5;entryY=0;entryDx=0;entryDy=0;" edge="1" parent="WIyWlLk6GJQsqaUBKTNV-1" source="fDO4mFQE8FthaiIr9Yby-25" target="fDO4mFQE8FthaiIr9Yby-14">
          <mxGeometry relative="1" as="geometry">
            <mxPoint x="380" y="760" as="targetPoint" />
            <Array as="points">
              <mxPoint x="460" y="640" />
              <mxPoint x="380" y="640" />
            </Array>
          </mxGeometry>
        </mxCell>
        <mxCell id="fDO4mFQE8FthaiIr9Yby-22" style="edgeStyle=orthogonalEdgeStyle;rounded=0;orthogonalLoop=1;jettySize=auto;html=1;entryX=0.5;entryY=0;entryDx=0;entryDy=0;" edge="1" parent="WIyWlLk6GJQsqaUBKTNV-1" source="fDO4mFQE8FthaiIr9Yby-23" target="fDO4mFQE8FthaiIr9Yby-14">
          <mxGeometry relative="1" as="geometry">
            <mxPoint x="330" y="660" as="targetPoint" />
            <Array as="points">
              <mxPoint x="300" y="640" />
              <mxPoint x="380" y="640" />
            </Array>
          </mxGeometry>
        </mxCell>
        <mxCell id="fDO4mFQE8FthaiIr9Yby-17" value="" style="rhombus;whiteSpace=wrap;html=1;" vertex="1" parent="WIyWlLk6GJQsqaUBKTNV-1">
          <mxGeometry x="340" y="480" width="80" height="80" as="geometry" />
        </mxCell>
        <mxCell id="fDO4mFQE8FthaiIr9Yby-18" style="edgeStyle=orthogonalEdgeStyle;rounded=0;orthogonalLoop=1;jettySize=auto;html=1;entryX=0.5;entryY=0;entryDx=0;entryDy=0;exitX=0.5;exitY=1;exitDx=0;exitDy=0;" edge="1" parent="WIyWlLk6GJQsqaUBKTNV-1" source="fDO4mFQE8FthaiIr9Yby-11" target="fDO4mFQE8FthaiIr9Yby-17">
          <mxGeometry relative="1" as="geometry">
            <mxPoint x="380" y="480" as="targetPoint" />
            <mxPoint x="380" y="460" as="sourcePoint" />
            <Array as="points" />
          </mxGeometry>
        </mxCell>
        <mxCell id="fDO4mFQE8FthaiIr9Yby-19" value="&lt;font style=&quot;font-size: 18px&quot;&gt;&lt;b&gt;Ні&lt;/b&gt;&lt;/font&gt;" style="text;html=1;align=center;verticalAlign=middle;resizable=0;points=[];autosize=1;" vertex="1" parent="WIyWlLk6GJQsqaUBKTNV-1">
          <mxGeometry x="500" y="300" width="30" height="20" as="geometry" />
        </mxCell>
        <mxCell id="fDO4mFQE8FthaiIr9Yby-20" value="&lt;font style=&quot;font-size: 18px&quot;&gt;&lt;b&gt;Так&lt;/b&gt;&lt;/font&gt;" style="text;html=1;align=center;verticalAlign=middle;resizable=0;points=[];autosize=1;" vertex="1" parent="WIyWlLk6GJQsqaUBKTNV-1">
          <mxGeometry x="390" y="370" width="50" height="20" as="geometry" />
        </mxCell>
        <mxCell id="fDO4mFQE8FthaiIr9Yby-23" value="" style="rounded=0;whiteSpace=wrap;html=1;" vertex="1" parent="WIyWlLk6GJQsqaUBKTNV-1">
          <mxGeometry x="240" y="560" width="120" height="60" as="geometry" />
        </mxCell>
        <mxCell id="fDO4mFQE8FthaiIr9Yby-24" style="edgeStyle=orthogonalEdgeStyle;rounded=0;orthogonalLoop=1;jettySize=auto;html=1;exitX=0;exitY=1;exitDx=0;exitDy=0;entryX=0.5;entryY=0;entryDx=0;entryDy=0;" edge="1" parent="WIyWlLk6GJQsqaUBKTNV-1" source="fDO4mFQE8FthaiIr9Yby-17" target="fDO4mFQE8FthaiIr9Yby-23">
          <mxGeometry relative="1" as="geometry">
            <mxPoint x="330" y="660" as="targetPoint" />
            <mxPoint x="340" y="520" as="sourcePoint" />
            <Array as="points">
              <mxPoint x="300" y="540" />
            </Array>
          </mxGeometry>
        </mxCell>
        <mxCell id="fDO4mFQE8FthaiIr9Yby-25" value="" style="rounded=0;whiteSpace=wrap;html=1;" vertex="1" parent="WIyWlLk6GJQsqaUBKTNV-1">
          <mxGeometry x="400" y="560" width="120" height="60" as="geometry" />
        </mxCell>
        <mxCell id="fDO4mFQE8FthaiIr9Yby-26" style="edgeStyle=orthogonalEdgeStyle;rounded=0;orthogonalLoop=1;jettySize=auto;html=1;" edge="1" parent="WIyWlLk6GJQsqaUBKTNV-1" source="fDO4mFQE8FthaiIr9Yby-17" target="fDO4mFQE8FthaiIr9Yby-25">
          <mxGeometry relative="1" as="geometry">
            <mxPoint x="470" y="620" as="targetPoint" />
            <mxPoint x="420" y="520" as="sourcePoint" />
            <Array as="points">
              <mxPoint x="460" y="540" />
            </Array>
          </mxGeometry>
        </mxCell>
        <mxCell id="fDO4mFQE8FthaiIr9Yby-27" value="print(z)" style="shape=parallelogram;perimeter=parallelogramPerimeter;whiteSpace=wrap;html=1;fixedSize=1;" vertex="1" parent="WIyWlLk6GJQsqaUBKTNV-1">
          <mxGeometry x="305" y="750" width="150" height="60" as="geometry" />
        </mxCell>
      </root>
    </mxGraphModel>
  </diagram>
</mxfile>
